<?xml version="1.0" encoding="UTF-8"?>
<svg id="Layer_2" data-name="Layer 2" xmlns="http://www.w3.org/2000/svg" viewBox="0 0 377.69 232.88">
  <defs>
    <style>
      .cls-1 {
        fill: #fff;
      }

      .cls-2 {
        fill: #21409a;
      }
    </style>
  </defs>
  <g id="Layer_1-2" data-name="Layer 1">
    <g>
      <path class="cls-1" d="M362.96,134.67c.85.45,2.07.93,2.8,1.51,1.69,1.35,9.41,10.07,10.31,11.86.53,1.07,1.62,4.24,1.62,5.36-6.25,23.7-15.76,46.49-23.45,69.76-5.81,10.77-14.18,10.94-25.01,8.27-17.39-4.28-38.49-9.64-55.33-15.3-5.38-1.81-9.3-3.73-11.67-9.27s-1.52-7.27-.03-12.51c2.71-9.56,6.35-18.9,9.14-28.43l-56.87,13.05c-41.62-4.32-83.21-8.69-124.84-13.05-24.37-2.56-48.77-4.85-73.09-7.8-3.95-.48-12.5.22-14.92-3.15-2.58-3.6-1.29-13.35-1.29-17.98-.01-35.03-.26-70.11,0-105.16.01-1.87-.54-2.26.1-4.38,1.28-4.28,3.63-4.25,7.53-4.79,33.62-4.61,67.76-6.31,101.42-10.69,7.6.25,13.73,3.14,19.87,7.35-.04-2.63,3.04-9.62,5.63-10.18L216.1,0c10.41,1.66,20.79,3.69,31.09,5.91,15.6,3.36,32.63,5.99,44.54,17.47,6.83-4.03,14.58-6.41,22.53-6.92,56.08-3.54,70.83,67.62,53.25,109.1-.63,1.48-4.92,8.48-4.54,9.12ZM351,141.7c.13-1.05-.87-1.82-.66-2.88.17-.87,4.06-6.33,4.9-7.86,14.16-25.76,14.92-65.35-3.26-89.42-10.12-13.4-31.05-19.89-46.85-13.66-5.06,2-10.16,5.49-15.12,7.84-9.37-14.51-27.59-16.71-43.24-19.96-10.54-2.18-21.26-4.38-31.92-5.48l-73.4,8.22-5.63,16.84c-5.54-2.59-10.16-6.91-15.59-9.66-2.92-1.48-6.56-2.71-9.65-3.9l-40.6,4.1-1.51,7.82-17.43-5.77-40.06,4.13c.25,1.89-.34,3.68-.43,5.52-1.77,35.2,1.38,71.86,0,107.22.07.87.02,1.96.94,2.37,1.55.7,6.75,1.19,8.78,1.46,10.43,1.39,22.83,3.16,33.21,3.74,5.46.31,10.81-.69,16.22-1.23l.06,2.61.97.67c15.06,1.4,30.12,2.71,45.17,4.11,7.11.66,14.68,2.05,21.77,2.46,6.28.36,12.06-1.29,18.27-1.64,0,1.55-.43,3.3,1.45,3.68,5.92,1.2,13.52,1.04,19.69,1.66,9.12.92,21.61,3.4,30.39,3.28,1.19-.02,2.62-.78,3.71-.75s2.05.83,3.66.76c1.38-.05,3.7-.69,5.23-.96,18.87-3.28,37.5-8.38,56.28-11.88,1.36-.25,8.39-2.43,8.93-1.95l-15.01,45.56c-.75,6.98,3.77,8.13,9.17,9.76,15.17,4.59,31.88,8.74,47.31,12.65,3.18.81,10.12,3.11,12.94,3.11,3.18,0,5.53-1.95,6.85-4.67l22.87-66.24c.43-4.42-2.81-7.22-6.76-8.35,1.3-5.62-5.11-10.3-9.64-6-.9.86-.99,2.1-2.03,2.69Z"/>
      <path class="cls-2" d="M351,141.7c1.04-.59,1.13-1.83,2.03-2.69,4.53-4.3,10.93.38,9.64,6,3.96,1.13,7.2,3.93,6.76,8.35l-22.87,66.24c-1.32,2.72-3.68,4.67-6.85,4.67-2.82,0-9.76-2.3-12.94-3.11-15.43-3.9-32.14-8.06-47.31-12.65-5.4-1.63-9.93-2.78-9.17-9.76l15.01-45.56c-.55-.48-7.58,1.69-8.93,1.95-18.78,3.5-37.41,8.61-56.28,11.88-1.53.27-3.85.91-5.23.96-1.61.06-2.53-.73-3.66-.76s-2.52.73-3.71.75c-8.78.12-21.26-2.36-30.39-3.28-6.17-.62-13.77-.46-19.69-1.66-1.88-.38-1.46-2.13-1.45-3.68-6.21.35-12,2-18.27,1.64-7.09-.41-14.66-1.8-21.77-2.46-15.06-1.4-30.12-2.71-45.17-4.11l-.97-.67-.06-2.61c-5.4.54-10.75,1.54-16.22,1.23-10.38-.58-22.78-2.35-33.21-3.74-2.03-.27-7.23-.76-8.78-1.46-.92-.41-.86-1.5-.94-2.37,1.38-35.35-1.77-72.02,0-107.22.09-1.85.69-3.63.43-5.52l40.06-4.13,17.43,5.77,1.51-7.82,40.6-4.1c3.09,1.19,6.72,2.43,9.65,3.9,5.43,2.75,10.05,7.07,15.59,9.66l5.63-16.84,73.4-8.22c10.66,1.11,21.38,3.3,31.92,5.48,15.65,3.25,33.87,5.45,43.24,19.96,4.96-2.35,10.06-5.84,15.12-7.84,15.8-6.23,36.73.26,46.85,13.66,18.17,24.07,17.42,63.66,3.26,89.42-.84,1.53-4.73,6.99-4.9,7.86-.21,1.06.79,1.83.66,2.88ZM278.25,31c-11.58-7.39-38.5-11.08-52.7-13.62-1.9-.34-5.36-1.08-7.08-1.17-.39-.02-.72-.3-1.05.23l-.6,143.34,29.15-4.93,1.03-55.84,20.73,49.07c.91.56,8.27-1.6,9.87-2.06,1.87-.53,10.97-3.25,11.68-4.33.47-.72,1.49-4.84,1.28-5.74l-18.31-40.07c-.11-1.7,3.45-2.51,4.81-3.37,9.89-6.26,11.21-17.46,11.92-28.32.72-11.03-.45-26.62-10.73-33.18ZM49.42,144.97v-39.42l24-1.23.23,43.07,30.77,2.96v-60.49l28.68,56.93,30.32-68.9-.23,78.19,42.23,4.13.82-143.02-60.14,6.8-16.28,48.39-22.31-44.83-33.09,3.23-.06,36.51c-6.63,1.18-13.39,1.46-20.08,2.19-.89.1-4.54,1.37-4.86.09l.02-35.86-33.02,3.03-.32,105.12,33.32,3.11ZM346.42,134.67c15.92-23.71,19.17-61.96,3.36-86.4-12.09-18.7-37.47-24.37-49.91-2.67-9.91,17.3-8.87,53.33-2.95,71.96.69,2.17,4.46,12.68,5.92,13.38l4.77.87c3.77-5.88,11.75-5.16,11.41,2.66l2.44.89c2.92-6.96,10.99-4.36,11.11,2.6l4.42.82c1.27-4.08,5.64-5.06,9.43-4.11ZM305.42,138.01l-7.8-2.06-20.9,65.25,63.76,16.52,22.67-65.77-6.98-1.97c-1.49.35-1.23,6.96-5.69,6.03-4.75-.99-.85-7.36-1.12-7.73-1.65-.15-7.47-2.4-8.43-1.24-1.43,1.74-.52,6.28-5.04,5.47-4-.72-1.75-5.03-.9-7.51l-8.02-1.91c-1.76.2-.91,6.91-5.64,5.94-4.52-.92-1.23-7.39-1.53-7.73l-7.55-1.61c-1.36.41-.88,5.76-4.99,5.73s-3.22-4.97-1.84-7.4Z"/>
      <path class="cls-1" d="M277.85,31c10.27,6.56,11.45,22.15,10.73,33.18-.71,10.86-2.03,22.07-11.92,28.32-1.36.86-4.92,1.67-4.81,3.37l18.31,40.07c.22.9-.8,5.02-1.28,5.74-.72,1.08-9.81,3.8-11.68,4.33-1.6.45-8.95,2.62-9.87,2.06l-20.73-49.07-1.03,55.84-29.15,4.93.6-143.34c.32-.53.66-.25,1.05-.23,1.72.09,5.18.83,7.08,1.17,14.21,2.55,41.13,6.24,52.7,13.62ZM246.65,77.23c5.97-.44,11.17-1.33,13.98-7.17s1.12-16.45-4.8-20.29c-1.43-.92-8.31-3.44-9.41-2.12l.23,29.57Z"/>
      <path class="cls-1" d="M346.42,134.67c-3.79-.95-8.16.03-9.43,4.11l-4.42-.82c-.13-6.96-8.2-9.56-11.11-2.6l-2.44-.89c.33-7.82-7.64-8.54-11.41-2.66l-4.77-.87c-1.47-.7-5.24-11.21-5.92-13.38-5.92-18.63-6.96-54.66,2.95-71.96,12.44-21.71,37.82-16.03,49.91,2.67,15.81,24.44,12.56,62.69-3.36,86.4ZM323.37,58.41c-.55.16-3.09,2.86-3.51,3.49-5.7,8.59-5.06,34.72-1.79,44.35,1.21,3.55,5.66,9.69,9.9,7.28,6.53-3.71,7.65-22.22,7.44-29.14-.21-6.99-1.57-24.34-10.27-25.88-.63-.11-1.07-.32-1.77-.11Z"/>
      <path class="cls-1" d="M305.42,138.01c-1.38,2.43-2.12,7.37,1.84,7.4s3.63-5.32,4.99-5.73l7.55,1.61c.3.33-2.99,6.81,1.53,7.73,4.73.96,3.88-5.74,5.64-5.94l8.02,1.91c-.85,2.48-3.1,6.8.9,7.51,4.52.81,3.61-3.73,5.04-5.47.96-1.16,6.78,1.09,8.43,1.24.27.36-3.62,6.74,1.12,7.73,4.46.93,4.2-5.68,5.69-6.03l6.98,1.97-22.67,65.77-63.76-16.52,20.9-65.25,7.8,2.06Z"/>
      <path class="cls-2" d="M246.42,77.23l-.23-29.57c1.1-1.32,7.99,1.19,9.41,2.12,5.92,3.84,7.71,14.25,4.8,20.29s-8.01,6.73-13.98,7.17Z"/>
      <path class="cls-2" d="M323.37,58.41c.7-.2,1.14,0,1.77.11,8.69,1.54,10.06,18.88,10.27,25.88.21,6.92-.91,25.43-7.44,29.14-4.23,2.41-8.69-3.73-9.9-7.28-3.27-9.63-3.92-35.77,1.79-44.35.42-.64,2.97-3.33,3.51-3.49Z"/>
      <rect class="cls-2" x="316.76" y="157.41" width="4.28" height="40.67" transform="translate(71.3 446.04) rotate(-76.43)"/>
      <rect class="cls-2" x="313.45" y="173.29" width="4.28" height="28.75" transform="translate(59.11 450.41) rotate(-76.43)"/>
      <text/>
      <path class="cls-2" d="M297.89,163.35l-4.37-1.05.68-2.82.93.22,1.48-6.15-.93-.23.68-2.82,5.04,1.22,2.38,7.1.81-3.34-.86-.21.68-2.82,4.29,1.04-.68,2.82-.93-.22-2.2,9.12-3.5-.85-2.76-8.21-1,4.16.94.23-.68,2.82Z"/>
      <path class="cls-2" d="M307.73,160.21c.24-.98.69-1.88,1.34-2.7.65-.81,1.5-1.42,2.56-1.83.38-.14.75-.24,1.12-.29.37-.05.76-.06,1.18-.03.41.03.84.09,1.28.2,1.91.46,3.24,1.44,3.98,2.93.37.74.61,1.49.7,2.27.09.78.04,1.56-.15,2.36-.4,1.64-1.28,2.94-2.66,3.9-1.38.95-1.5,1.21-3.35.76-1.78-.43-4.57-1.35-5.4-2.76-.84-1.4-1.04-3.01-.61-4.8ZM312.35,161.32c-.32,1.31-.42,2.22-.3,2.74.11.52.4.83.87.94.46.11.87-.03,1.2-.42.34-.4.67-1.26.99-2.6.31-1.29.41-2.2.3-2.73-.11-.52-.4-.83-.88-.95-.46-.11-.86.03-1.2.42-.34.39-.67,1.25-.99,2.59Z"/>
      <path class="cls-2" d="M328.19,170.93l-5.98-1.44.68-2.82.92.22,1.48-6.15-1.22-.3-.52,2.15-2-.48,1.2-4.97,10.55,2.55-1.2,4.97-2-.48.52-2.14-1.22-.29-1.48,6.15.94.23-.68,2.82Z"/>
      <path class="cls-2" d="M341.96,174.46l-10.16-2.45.68-2.82.83.2,1.48-6.15-.84-.2.68-2.82,10.17,2.45-.91,3.77-2.79-.67.23-.95-2.42-.58-.44,1.81,2.1.51-.58,2.4-2.1-.51-.47,1.93,2.42.58.23-.95,2.79.67-.91,3.77Z"/>
      <path class="cls-2" d="M345.81,175.2l-2.39-.58.91-3.78,2.39.58c.04,1.1.45,1.74,1.24,1.93.57.14.92-.05,1.04-.56.06-.27.02-.51-.14-.73-.17-.24-.56-.62-1.16-1.12-.76-.64-1.31-1.17-1.64-1.59-.31-.38-.54-.86-.69-1.43-.15-.57-.15-1.16,0-1.77.26-1.1.79-1.88,1.58-2.34.79-.46,1.65-.58,2.58-.36.93.23,1.65.71,2.16,1.45l.18-.73,2.41.58-.81,3.36-2.38-.57c-.07-1-.47-1.59-1.21-1.76-.52-.13-.84.06-.96.55-.06.24-.03.43.09.59.11.16.51.54,1.19,1.16.91.83,1.5,1.42,1.79,1.77.15.17.29.4.41.68.13.28.23.56.29.84.15.62.14,1.25-.01,1.9-.24.99-.77,1.75-1.6,2.27-.83.54-1.75.68-2.76.44-.94-.23-1.71-.74-2.33-1.54l-.19.77Z"/>
      <path class="cls-2" d="M97.75,62.26c3.36,5.32,6.73,10.64,10.09,15.96-.35-.28-2.91-2.22-6.27-1.48-2.73.6-4.19,2.56-4.53,3.04"/>
    </g>
  </g>
</svg>