<svg width="114" height="93" viewBox="0 0 114 93" fill="none" xmlns="http://www.w3.org/2000/svg">
<path d="M51.0874 2.89594V29.5267C51.0874 30.5602 51.6365 31.5142 52.5281 32.031L69.0107 41.5765C70.9325 42.6895 73.3341 41.2983 73.3341 39.0723V12.4415C73.3341 11.408 72.785 10.454 71.8934 9.9373L55.4108 0.391718C53.489 -0.72127 51.0874 0.669968 51.0874 2.89594Z" fill="#3399FF"/>
<path d="M28.8392 2.89594V29.5267C28.8392 30.5602 29.3883 31.5142 30.2799 32.031L46.7625 41.5765C48.6844 42.6895 51.0859 41.2983 51.0859 39.0723V12.4415C51.0859 11.408 50.5368 10.454 49.6453 9.9373L33.1626 0.391718C31.2408 -0.72127 28.8392 0.669968 28.8392 2.89594Z" fill="#13548A"/>
<path d="M0 57.0767H6.69548L15.0696 66.97L14.9657 57.0767H18.9454V70.0911H12.1878L3.93795 60.2957L4.04189 70.0911H0V57.0767Z" fill="#13548A"/>
<path d="M28.9564 65.5843L21.059 57.0767H26.4271L31.0902 62.462L35.7128 57.0767H40.9769L33.1835 65.5843V70.0911H28.9552V65.5843H28.9564Z" fill="#13548A"/>
<path d="M43.0989 57.0767H49.7728L54.81 65.7204L59.8256 57.0767H66.4578V70.0911H62.3538L62.5617 60.0426L56.4265 70.0911H53.068L47.0368 60.0426L47.1611 70.0911H43.0989V57.0767Z" fill="#13548A"/>
<path d="M69.5761 57.0767H76.2716L84.6457 66.97L84.5418 57.0767H88.5216V70.0911H81.7639L73.5141 60.2957L73.618 70.0911H69.5761V57.0767Z" fill="#13548A"/>
<path d="M98.3521 57.0767H103.99L111.555 70.0911H106.954L105.586 67.7696H96.6735L95.3473 70.0911H90.5801L98.3533 57.0767H98.3521ZM104.114 65.0568L101.13 59.866L98.186 65.0568H104.114Z" fill="#13548A"/>
<path d="M0 85.3394H7.66683V86.4765H0V85.3394ZM3.14343 86.337H4.53654V92.8594H3.14343V86.337Z" fill="#13548A"/>
<path d="M12.575 89.6561V91.7223H18.1844V92.8594H11.1699V85.3394H18.1713V86.4765H12.575V88.5651H17.1605V89.6561H12.575Z" fill="#13548A"/>
<path d="M30.0998 90.2251C30.0174 90.8055 29.7999 91.3026 29.4463 91.7165C29.0926 92.1304 28.6231 92.4476 28.0353 92.668C27.4474 92.8885 26.7628 92.9987 25.9826 92.9987C25.3088 92.9987 24.6899 92.9132 24.1272 92.7434C23.5644 92.5736 23.0746 92.3239 22.66 91.9943C22.2454 91.6659 21.924 91.2599 21.6982 90.7762C21.4724 90.2926 21.3589 89.7381 21.3589 89.1105C21.3589 88.4829 21.4712 87.9194 21.6982 87.4391C21.924 86.9599 22.2442 86.5517 22.66 86.2154C23.0746 85.8791 23.5644 85.626 24.1272 85.455C24.6899 85.2852 25.3088 85.1997 25.9826 85.1997C26.7712 85.1997 27.4594 85.3122 28.0472 85.536C28.635 85.761 29.1058 86.0815 29.4582 86.4988C29.8119 86.9161 30.0257 87.42 30.0998 88.0071H28.7437C28.6291 87.6584 28.4474 87.3626 28.2013 87.1197C27.9552 86.8756 27.6446 86.6889 27.2706 86.5573C26.8966 86.4257 26.4665 86.3605 25.9826 86.3605C25.3745 86.3605 24.8285 86.4673 24.3434 86.6799C23.8583 86.8925 23.4784 87.2018 23.2036 87.6078C22.9276 88.0138 22.7902 88.5155 22.7902 89.1105C22.7902 89.7055 22.9276 90.1958 23.2036 90.6019C23.4784 91.0079 23.8583 91.315 24.3434 91.5242C24.8285 91.7334 25.3745 91.838 25.9826 91.838C26.4677 91.838 26.8954 91.7739 27.2646 91.6468C27.635 91.5197 27.9433 91.333 28.1894 91.09C28.4355 90.8459 28.6159 90.558 28.7318 90.2251H30.0998Z" fill="#13548A"/>
<path d="M34.0115 85.3394H35.4165V92.8594H34.0115V85.3394ZM35.2564 88.5314H41.1239V89.6573H35.2564V88.5314ZM40.928 85.3394H42.3211V92.8594H40.928V85.3394Z" fill="#13548A"/>
<path d="M54.0048 91.4905L53.5854 91.6412V85.3403H54.9785V92.8604H53.5854L47.5948 86.7451L48.0261 86.5944V92.8615H46.6211V85.3415H48.0261L54.0048 91.4916V91.4905Z" fill="#13548A"/>
<path d="M63.5772 92.9987C62.6405 92.9987 61.8245 92.8401 61.1303 92.5229C60.4362 92.2058 59.8973 91.757 59.515 91.1766C59.1327 90.5963 58.9415 89.9045 58.9415 89.0992C58.9415 88.2939 59.1327 87.5999 59.515 87.0162C59.8973 86.4324 60.435 85.9837 61.1303 85.6699C61.8245 85.3561 62.6405 85.1997 63.5772 85.1997C64.5139 85.1997 65.3395 85.3561 66.0301 85.6699C66.7207 85.9837 67.2571 86.4324 67.6394 87.0162C68.0218 87.5999 68.2129 88.295 68.2129 89.0992C68.2129 89.9034 68.0218 90.5963 67.6394 91.1766C67.2571 91.757 66.7207 92.2058 66.0301 92.5229C65.3395 92.8401 64.5223 92.9987 63.5772 92.9987ZM63.5772 91.838C64.2021 91.838 64.7529 91.7379 65.2284 91.5366C65.7051 91.3352 66.0815 91.0315 66.3563 90.6255C66.6311 90.2195 66.7697 89.7111 66.7697 89.0992C66.7697 88.4874 66.6323 87.9913 66.3563 87.5853C66.0803 87.1793 65.7051 86.8733 65.2284 86.6686C64.7517 86.4639 64.2009 86.3605 63.5772 86.3605C62.9536 86.3605 62.4099 86.4628 61.9249 86.6686C61.4398 86.8733 61.0575 87.1793 60.7779 87.5853C60.4983 87.9913 60.3585 88.4964 60.3585 89.0992C60.3585 89.7021 60.4983 90.2195 60.7779 90.6255C61.0575 91.0315 61.4398 91.3352 61.9249 91.5366C62.4099 91.7379 62.9607 91.838 63.5772 91.838Z" fill="#13548A"/>
<path d="M73.5559 85.3394V91.7223H78.5357V92.8594H72.1509V85.3394H73.5559Z" fill="#13548A"/>
<path d="M86.1333 92.9987C85.1966 92.9987 84.3805 92.8401 83.6864 92.5229C82.9922 92.2058 82.4534 91.757 82.071 91.1766C81.6887 90.5963 81.4976 89.9045 81.4976 89.0992C81.4976 88.2939 81.6887 87.5999 82.071 87.0162C82.4534 86.4324 82.991 85.9837 83.6864 85.6699C84.3805 85.3561 85.1966 85.1997 86.1333 85.1997C87.0699 85.1997 87.8955 85.3561 88.5861 85.6699C89.2767 85.9837 89.8131 86.4324 90.1955 87.0162C90.5778 87.5999 90.769 88.295 90.769 89.0992C90.769 89.9034 90.5778 90.5963 90.1955 91.1766C89.8131 91.757 89.2767 92.2058 88.5861 92.5229C87.8955 92.8401 87.0783 92.9987 86.1333 92.9987ZM86.1333 91.838C86.7581 91.838 87.3089 91.7379 87.7844 91.5366C88.2611 91.3352 88.6375 91.0315 88.9123 90.6255C89.1871 90.2195 89.3257 89.7111 89.3257 89.0992C89.3257 88.4874 89.1883 87.9913 88.9123 87.5853C88.6363 87.1793 88.2611 86.8733 87.7844 86.6686C87.3077 86.4639 86.7569 86.3605 86.1333 86.3605C85.5096 86.3605 84.966 86.4628 84.4809 86.6686C83.9958 86.8733 83.6135 87.1793 83.3339 87.5853C83.0543 87.9913 82.9146 88.4964 82.9146 89.0992C82.9146 89.7021 83.0543 90.2195 83.3339 90.6255C83.6135 91.0315 83.9958 91.3352 84.4809 91.5366C84.966 91.7379 85.5167 91.838 86.1333 91.838Z" fill="#13548A"/>
<path d="M98.8503 92.9991C98.1681 92.9991 97.5516 92.9136 97.0008 92.7437C96.45 92.5739 95.9793 92.3242 95.5898 91.9947C95.1991 91.6662 94.8992 91.2613 94.6901 90.7822C94.4799 90.303 94.3759 89.7609 94.3759 89.158C94.3759 88.5552 94.487 87.9973 94.7081 87.5103C94.9291 87.0233 95.2457 86.6071 95.6579 86.2629C96.0689 85.9188 96.5576 85.6556 97.1251 85.4734C97.6926 85.2923 98.3163 85.2012 98.9985 85.2012C99.7954 85.2012 100.486 85.317 101.069 85.5498C101.652 85.7815 102.117 86.1055 102.462 86.5182C102.807 86.9322 103.005 87.4214 103.054 87.9861H101.76C101.653 87.6531 101.478 87.3674 101.236 87.1279C100.994 86.8883 100.685 86.7005 100.312 86.5655C99.9376 86.4305 99.5003 86.3619 98.9985 86.3619C98.3414 86.3619 97.7726 86.48 97.2912 86.7162C96.8109 86.9524 96.4429 87.2808 96.1884 87.7026C95.9339 88.1244 95.8061 88.6103 95.8061 89.1592C95.8061 89.708 95.9196 90.1827 96.1454 90.5809C96.3712 90.979 96.7141 91.2883 97.1753 91.5088C97.6352 91.7292 98.2063 91.8394 98.8886 91.8394C99.4143 91.8394 99.8766 91.7641 100.276 91.6134C100.675 91.4627 101.004 91.2523 101.269 90.9813C101.531 90.7102 101.717 90.3975 101.823 90.041L102.451 89.9015C102.337 90.8992 101.96 91.6651 101.323 92.1994C100.687 92.7336 99.8623 93.0002 98.8515 93.0002L98.8503 92.9991ZM102.118 92.8596C102.118 92.6121 102.13 92.3321 102.155 92.0183C102.18 91.7045 102.21 91.3839 102.247 91.0555C102.284 90.7271 102.319 90.4313 102.352 90.1681H99.0487V89.2165H103.363V92.8607H102.118V92.8596Z" fill="#13548A"/>
<path d="M114 85.3394L110.745 90.4109V92.8594H109.34V90.4109L106.086 85.3394H107.7L110.449 89.772H109.685L112.397 85.3394H113.999H114Z" fill="#13548A"/>
</svg>
