<svg width="202" height="51" viewBox="0 0 202 51" fill="none" xmlns="http://www.w3.org/2000/svg">
<path d="M63 41.1662H72.3047V42.5209H63V41.1662ZM66.8149 42.3547H68.5057V50.1254H66.8149V42.3547Z" fill="#13548A"/>
<path d="M78.2612 46.3091V48.7707H85.069V50.1254H76.556V41.1662H85.0531V42.5209H78.2612V45.0093H83.8263V46.3091H78.2612Z" fill="#13548A"/>
<path d="M99.5299 46.9871C99.4298 47.6786 99.1659 48.2709 98.7367 48.764C98.3075 49.2571 97.7377 49.635 97.0243 49.8976C96.3109 50.1603 95.48 50.2916 94.5332 50.2916C93.7154 50.2916 92.9643 50.1897 92.2813 49.9874C91.5984 49.7851 91.0039 49.4876 90.5007 49.095C89.9976 48.7037 89.6075 48.2199 89.3335 47.6437C89.0594 47.0675 88.9217 46.4069 88.9217 45.6592C88.9217 44.9115 89.058 44.2401 89.3335 43.668C89.6075 43.0971 89.9961 42.6107 90.5007 42.21C91.0039 41.8094 91.5984 41.5079 92.2813 41.3042C92.9643 41.1019 93.7154 41 94.5332 41C95.4902 41 96.3254 41.134 97.0388 41.4007C97.7522 41.6687 98.3235 42.0506 98.7512 42.5477C99.1804 43.0449 99.44 43.6452 99.5299 44.3447H97.8841C97.7449 43.9293 97.5245 43.5768 97.2258 43.2874C96.9271 42.9966 96.5501 42.7742 96.0963 42.6174C95.6424 42.4606 95.1204 42.3829 94.5332 42.3829C93.7951 42.3829 93.1325 42.5102 92.5438 42.7635C91.9551 43.0167 91.494 43.3852 91.1605 43.869C90.8255 44.3527 90.6588 44.9503 90.6588 45.6592C90.6588 46.3681 90.8255 46.9523 91.1605 47.436C91.494 47.9198 91.9551 48.2856 92.5438 48.5348C93.1325 48.7841 93.7951 48.9087 94.5332 48.9087C95.1219 48.9087 95.641 48.8323 96.089 48.6809C96.5385 48.5295 96.9126 48.307 97.2113 48.0176C97.51 47.7268 97.729 47.3838 97.8696 46.9871H99.5299Z" fill="#13548A"/>
<path d="M104.277 41.1662H105.982V50.1254H104.277V41.1662ZM105.788 44.9691H112.909V46.3104H105.788V44.9691ZM112.671 41.1662H114.362V50.1254H112.671V41.1662Z" fill="#13548A"/>
<path d="M128.541 48.4946L128.032 48.6742V41.1675H129.723V50.1267H128.032L120.762 42.8412L121.286 42.6616V50.1281H119.58V41.1688H121.286L128.541 48.496V48.4946Z" fill="#13548A"/>
<path d="M140.159 50.2916C139.022 50.2916 138.032 50.1026 137.189 49.7247C136.347 49.3469 135.693 48.8122 135.229 48.1208C134.765 47.4293 134.533 46.6052 134.533 45.6458C134.533 44.6864 134.765 43.8596 135.229 43.1641C135.693 42.4687 136.345 41.934 137.189 41.5601C138.032 41.1863 139.022 41 140.159 41C141.296 41 142.298 41.1863 143.136 41.5601C143.974 41.934 144.625 42.4687 145.089 43.1641C145.553 43.8596 145.785 44.6877 145.785 45.6458C145.785 46.6039 145.553 47.4293 145.089 48.1208C144.625 48.8122 143.974 49.3469 143.136 49.7247C142.298 50.1026 141.306 50.2916 140.159 50.2916ZM140.159 48.9087C140.917 48.9087 141.586 48.7894 142.163 48.5496C142.741 48.3097 143.198 47.9479 143.532 47.4642C143.865 46.9804 144.033 46.3748 144.033 45.6458C144.033 44.9168 143.867 44.3259 143.532 43.8422C143.197 43.3584 142.741 42.9939 142.163 42.7501C141.584 42.5062 140.916 42.3829 140.159 42.3829C139.402 42.3829 138.742 42.5048 138.154 42.7501C137.565 42.9939 137.101 43.3584 136.762 43.8422C136.422 44.3259 136.253 44.9276 136.253 45.6458C136.253 46.364 136.422 46.9804 136.762 47.4642C137.101 47.9479 137.565 48.3097 138.154 48.5496C138.742 48.7894 139.411 48.9087 140.159 48.9087Z" fill="#13548A"/>
<path d="M152.269 41.1662V48.7707H158.313V50.1254H150.564V41.1662H152.269Z" fill="#13548A"/>
<path d="M167.533 50.2916C166.397 50.2916 165.406 50.1026 164.564 49.7247C163.721 49.3469 163.067 48.8122 162.603 48.1208C162.139 47.4293 161.907 46.6052 161.907 45.6458C161.907 44.6864 162.139 43.8596 162.603 43.1641C163.067 42.4687 163.72 41.934 164.564 41.5601C165.406 41.1863 166.397 41 167.533 41C168.67 41 169.672 41.1863 170.51 41.5601C171.348 41.934 171.999 42.4687 172.463 43.1641C172.927 43.8596 173.159 44.6877 173.159 45.6458C173.159 46.6039 172.927 47.4293 172.463 48.1208C171.999 48.8122 171.348 49.3469 170.51 49.7247C169.672 50.1026 168.68 50.2916 167.533 50.2916ZM167.533 48.9087C168.292 48.9087 168.96 48.7894 169.537 48.5496C170.116 48.3097 170.573 47.9479 170.906 47.4642C171.24 46.9804 171.408 46.3748 171.408 45.6458C171.408 44.9168 171.241 44.3259 170.906 43.8422C170.571 43.3584 170.116 42.9939 169.537 42.7501C168.959 42.5062 168.29 42.3829 167.533 42.3829C166.776 42.3829 166.117 42.5048 165.528 42.7501C164.939 42.9939 164.475 43.3584 164.136 43.8422C163.797 44.3259 163.627 44.9276 163.627 45.6458C163.627 46.364 163.797 46.9804 164.136 47.4642C164.475 47.9479 164.939 48.3097 165.528 48.5496C166.117 48.7894 166.785 48.9087 167.533 48.9087Z" fill="#13548A"/>
<path d="M182.967 50.2916C182.139 50.2916 181.391 50.1897 180.723 49.9874C180.054 49.785 179.483 49.4876 179.01 49.0949C178.536 48.7037 178.172 48.2213 177.918 47.6504C177.663 47.0796 177.537 46.4337 177.537 45.7155C177.537 44.9972 177.672 44.3326 177.94 43.7524C178.208 43.1721 178.593 42.6763 179.093 42.2663C179.592 41.8563 180.185 41.5427 180.873 41.3256C181.562 41.1099 182.319 41.0013 183.147 41.0013C184.114 41.0013 184.952 41.1394 185.66 41.4167C186.367 41.6928 186.932 42.0787 187.351 42.5705C187.77 43.0636 188.009 43.6465 188.068 44.3192H186.498C186.369 43.9225 186.156 43.5822 185.863 43.2968C185.569 43.0113 185.194 42.7876 184.741 42.6268C184.287 42.466 183.756 42.3842 183.147 42.3842C182.35 42.3842 181.659 42.5249 181.075 42.8063C180.492 43.0877 180.045 43.479 179.737 43.9815C179.428 44.484 179.273 45.0629 179.273 45.7168C179.273 46.3707 179.41 46.9362 179.684 47.4106C179.958 47.8849 180.375 48.2534 180.934 48.5161C181.493 48.7787 182.186 48.91 183.014 48.91C183.652 48.91 184.213 48.8202 184.697 48.6407C185.181 48.4611 185.582 48.2105 185.902 47.8876C186.221 47.5647 186.446 47.1921 186.575 46.7674L187.338 46.6012C187.198 47.7898 186.742 48.7023 185.969 49.3388C185.196 49.9753 184.195 50.2929 182.969 50.2929L182.967 50.2916ZM186.933 50.1254C186.933 49.8306 186.947 49.4969 186.978 49.1231C187.008 48.7492 187.045 48.3673 187.09 47.976C187.135 47.5848 187.177 47.2323 187.217 46.9188H183.208V45.7851H188.444V50.1267H186.933V50.1254Z" fill="#13548A"/>
<path d="M201.353 41.1662L197.403 47.2082V50.1254H195.698V47.2082L191.748 41.1662H193.707L197.044 46.4471H196.116L199.407 41.1662H201.352H201.353Z" fill="#13548A"/>
<path d="M63 13H71.1258L81.2889 24.7866L81.1627 13H85.9926V28.5051H77.7914L67.7792 16.8351L67.9053 28.5051H63V13Z" fill="#13548A"/>
<path d="M98.1422 23.1358L88.5577 13H95.0726L100.732 19.4159L106.342 13H112.731L103.272 23.1358V28.5051H98.1407V23.1358H98.1422Z" fill="#13548A"/>
<path d="M115.306 13H123.406L129.519 23.2979L135.606 13H143.655V28.5051H138.674L138.926 16.5336L131.481 28.5051H127.405L120.085 16.5336L120.236 28.5051H115.306V13Z" fill="#13548A"/>
<path d="M147.439 13H155.565L165.728 24.7866L165.602 13H170.432V28.5051H162.231L152.218 16.8351L152.345 28.5051H147.439V13Z" fill="#13548A"/>
<path d="M182.363 13H189.205L198.386 28.5051H192.803L191.142 25.7394H180.325L178.716 28.5051H172.93L182.364 13H182.363ZM189.356 22.5073L185.734 16.3232L182.161 22.5073H189.356Z" fill="#13548A"/>
<path d="M27.0009 3.45016V35.1775C27.0009 36.4087 27.6673 37.5453 28.7493 38.1609L48.753 49.5333C51.0854 50.8593 54 49.2018 54 46.5499V14.8225C54 13.5913 53.3336 12.4547 52.2516 11.8391L32.2478 0.466684C29.9155 -0.859304 27.0009 0.798184 27.0009 3.45016Z" fill="#3399FF"/>
<path d="M0 3.45016V35.1775C0 36.4087 0.66639 37.5453 1.74842 38.1609L21.7522 49.5333C24.0845 50.8593 26.9991 49.2018 26.9991 46.5499V14.8225C26.9991 13.5913 26.3328 12.4547 25.2507 11.8391L5.24698 0.466684C2.91461 -0.859304 0 0.798184 0 3.45016Z" fill="#13548A"/>
</svg>
