<svg width="354" height="331" viewBox="0 0 354 331" fill="none" xmlns="http://www.w3.org/2000/svg">
<g opacity="0.66">
<path d="M177.006 22.7732V232.194C177.006 240.321 181.374 247.823 188.468 251.886L319.603 326.951C334.893 335.704 354 324.763 354 307.259V97.8381C354 89.7109 349.632 82.209 342.538 78.1454L211.403 3.08041C196.113 -5.67195 177.006 5.26852 177.006 22.7732Z" fill="#3399FF"/>
<path d="M0 22.7732V232.194C0 240.321 4.36855 247.823 11.4618 251.886L142.598 326.951C157.888 335.704 176.994 324.763 176.994 307.259V97.8381C176.994 89.7109 172.626 82.209 165.533 78.1454L34.3969 3.08041C19.1069 -5.67195 0 5.26852 0 22.7732Z" fill="#13548A"/>
</g>
</svg>
