<svg width="80" height="106" viewBox="0 0 80 106" fill="none" xmlns="http://www.w3.org/2000/svg">
<path d="M36.5079 1.22799C35.0052 1.90524 28.8465 4.61423 22.8571 7.23857C3.64014 15.6619 2.96289 15.9793 2.96289 16.9529C2.96289 17.1645 3.17453 17.5666 3.44966 17.8206C3.70363 18.0957 7.06871 19.7254 10.9417 21.4608L17.9682 24.6354L17.9893 29.0164C17.9893 31.4502 18.074 33.4185 18.1798 33.4185C18.2856 33.4185 18.8782 33.1857 19.492 32.9105C20.1269 32.6354 21.5026 32.191 22.5396 31.9158C25.0581 31.2598 29.8835 31.1963 32.4867 31.81C34.3068 32.2121 37.2274 33.355 38.6666 34.1804C39.1534 34.4555 39.7036 34.6883 39.8941 34.6883C40.0634 34.6883 41.2909 34.1804 42.6031 33.5455C45.5872 32.0851 47.8306 31.5137 51.111 31.3656C54.0952 31.2386 56.656 31.5984 59.4708 32.5931C60.4655 32.9317 61.4391 33.2703 61.6507 33.3338C61.9893 33.4608 62.0105 33.1645 62.0105 29.0375V24.6142L64.8253 23.3021C66.3491 22.5825 67.7036 21.9899 67.7883 21.9899C67.8729 21.9899 67.9364 24.1063 67.8941 26.6883L67.8306 31.4079L67.0476 32.5084C66.0317 33.9687 65.82 35.1116 65.82 38.9211V42.0957H69.3333H72.8465L72.7618 38.4344C72.6772 35.3444 72.5925 34.6248 72.1904 33.609C71.9364 32.9529 71.5555 32.2545 71.3227 32.0428C70.9206 31.683 70.8994 31.3656 70.8994 26.1169V20.5719L73.4603 19.4291C74.8782 18.7941 76.2539 18.0746 76.529 17.8206C77.1428 17.2703 77.1851 16.4661 76.656 16.0005C76.3174 15.683 73.7565 14.4978 68.9946 12.4661C68.2327 12.1486 64.7618 10.6248 61.2698 9.07985C57.7777 7.55604 53.3121 5.58778 51.3227 4.74122C49.3544 3.89466 46.1163 2.47667 44.1269 1.58778C42.074 0.656563 40.2751 -0.0206871 39.8941 0.000476837C39.5555 0.000476837 38.0317 0.550743 36.5079 1.22799Z" fill="white"/>
<path d="M10.9836 37.651C10.0947 37.7357 8.63435 37.9685 7.76663 38.159C4.99414 38.7727 5.29044 35.4711 5.29044 65.6722V91.7251H12.3169C18.6873 91.7463 19.5973 91.7886 21.883 92.2119C28.2957 93.4183 33.756 95.6405 37.8619 98.7304C40.1687 100.445 39.9359 100.424 41.5867 99.1114C45.4174 96.0638 50.6661 93.778 56.6132 92.5717C60.6978 91.7463 63.2587 91.5558 69.1635 91.6828L74.4968 91.7886V67.577V43.3653L69.5867 43.323L64.6555 43.2595L64.592 40.3177L64.5285 37.3759L62.0735 37.5241C54.391 37.9897 47.3857 40.5082 41.7137 44.8256C40.7825 45.5452 39.9571 46.1167 39.8936 46.1167C39.8301 46.1167 39.1952 45.6299 38.4756 45.0584C31.6185 39.5135 21.0788 36.6775 10.9836 37.651ZM20.2322 59.2383C21.0576 60.5717 23.0047 63.7251 24.5285 66.2225L27.301 70.7516V63.7251V56.6987H29.3116H31.3222V67.1325V72.3495V77.5664L30.01 77.5241C29.2693 77.4817 28.2534 77.4606 27.7243 77.4394H26.7719L22.6449 70.5399L18.518 63.6616L18.4545 70.5611L18.4121 77.4394H16.5074H14.6026V67.069V56.6775L16.6555 56.741L18.7084 56.8045L20.2322 59.2383ZM48.0418 58.8151V60.7198H43.7031H39.3645V62.9421V65.1643H43.174H46.9836V67.069V68.9738H43.174H39.3645V71.3442V73.7357L43.809 73.6722L48.2534 73.6087V75.6405V77.6511H41.7984H35.3433V67.2807V56.9103H41.6926H48.0418V58.8151ZM61.9042 57.2278C64.4862 57.905 65.8407 59.3865 65.9889 61.7145C66.0523 62.6458 65.9677 63.3442 65.7349 64.0003C65.3751 64.9103 63.9571 66.4341 63.428 66.4341C63.301 66.4553 63.4703 66.6034 63.809 66.7939C65.6502 67.7463 66.4333 69.1643 66.4545 71.5346C66.4545 73.5452 65.7561 75.069 64.3804 76.1061C62.7719 77.3336 61.6502 77.5241 56.2957 77.5241L51.5338 77.5452L51.4703 67.2172L51.428 56.9103H56.0418C59.5127 56.9103 60.973 56.995 61.9042 57.2278Z" fill="white"/>
<path d="M55.5547 62.8363V65.1643H57.6288C60.6975 65.1643 61.7981 64.5294 61.7981 62.7728C61.7981 60.995 60.9515 60.5083 57.7346 60.5083H55.5547V62.8363Z" fill="white"/>
<path d="M55.5547 71.1749V73.8416H57.7769C59.6817 73.8416 60.1684 73.7781 60.9515 73.3548C62.179 72.7622 62.6023 71.704 62.179 70.3918C61.7134 68.9315 61.0997 68.6776 58.1367 68.5929L55.5547 68.5082V71.1749Z" fill="white"/>
<path d="M2.75132 42.4555C1.54497 42.6671 0.634921 42.9634 0.31746 43.2809C0.042328 43.5772 0 46.5613 0 70.8576V98.1169L0.444444 98.519C0.867725 98.8999 1.3545 98.9211 9.0582 98.9211C15.619 98.9422 17.7354 99.0057 19.6825 99.302C26.4762 100.297 29.8201 101.27 34.8148 103.662L38.2011 105.27H40.1058L42.0106 105.249L44.6561 103.852C51.7884 100.064 59.9577 98.6248 72.9947 98.8788L79.0053 98.9846L79.4921 98.4766L80 97.9899V71.0481C80 49.884 79.9365 44.0004 79.7249 43.5772C79.5344 43.175 79.1534 42.9634 78.0952 42.6883C77.3333 42.4978 76.4656 42.3285 76.1481 42.3285L75.5555 42.3073V67.3232C75.5555 82.7518 75.4709 92.4872 75.3439 92.6777C75.1746 92.9528 74.1799 92.9952 68.6349 93.0163C61.5026 93.0163 59.6614 93.2068 55.0053 94.3708C49.7566 95.683 45.9471 97.4608 42.0317 100.403C40.1481 101.821 39.6825 101.863 38.328 100.741C35.0476 97.9899 28.7407 95.1116 23.6825 94.0745C19.0265 93.1221 17.8201 93.0163 11.2593 92.9952C5.79894 92.9952 4.8254 92.9528 4.65608 92.6777C4.5291 92.4872 4.44444 82.7518 4.44444 67.3232V42.3073L3.87302 42.3285C3.53439 42.3496 3.04762 42.4131 2.75132 42.4555Z" fill="white"/>
</svg>
