<svg width="753" height="327" viewBox="0 0 753 327" fill="none" xmlns="http://www.w3.org/2000/svg">
<path d="M1 315.509C1 315.509 215.101 325.39 419.32 325.39C623.54 325.39 752 315.509 752 315.509" stroke="black" stroke-width="3" stroke-miterlimit="10"/>
<path d="M392.969 167.285V210.105C392.969 226.574 383.088 236.456 383.088 236.456H373.206L350.149 262.807L340.267 302.333H333.68V315.508H297.447L299.424 311.556C302.388 305.956 307.988 302.333 314.575 302.333H320.504L343.561 233.162V177.166" stroke="black" stroke-width="3" stroke-miterlimit="10"/>
<path d="M379.794 236.455L422.614 295.745L418.332 299.039L422.614 305.626V315.508H389.676V315.179C391.652 307.603 398.24 302.333 406.145 302.333V299.039L363.325 249.631" stroke="black" stroke-width="3" stroke-miterlimit="10"/>
<path d="M343.562 206.812H392.969" stroke="black" stroke-width="3" stroke-miterlimit="10"/>
<path d="M313.917 167.285L330.386 200.224H333.68V169.591C333.68 150.486 346.197 114.583 346.197 114.583V98.114" stroke="black" stroke-width="3" stroke-miterlimit="10"/>
<path d="M383.088 167.285H152.518" stroke="black" stroke-width="3" stroke-miterlimit="10"/>
<path d="M448.965 111.29H458.846" stroke="black" stroke-width="3" stroke-miterlimit="10"/>
<path d="M448.965 121.171H458.846" stroke="black" stroke-width="3" stroke-miterlimit="10"/>
<path d="M448.965 131.052H458.846" stroke="black" stroke-width="3" stroke-miterlimit="10"/>
<path d="M392.969 111.29H442.377V131.053H431.508C415.038 131.053 399.228 125.783 385.723 116.23L383.088 114.583" stroke="black" stroke-width="3" stroke-miterlimit="10"/>
<path d="M392.969 91.5264C392.969 91.5264 392.969 107.996 392.969 111.29L390.663 111.948C379.135 115.901 366.618 116.889 354.76 115.572L346.855 114.583" stroke="black" stroke-width="3" stroke-miterlimit="10"/>
<path d="M325.446 64.5166C324.457 70.4455 327.422 76.0451 333.351 78.6802C338.95 80.9859 345.209 79.339 348.832 74.7276" stroke="black" stroke-width="3" stroke-miterlimit="10"/>
<path d="M409.109 61.2226C409.109 61.2226 397.91 45.7415 376.83 36.5187C355.749 27.2959 336.645 29.931 336.645 29.931C345.209 9.83841 379.135 -2.01949 391.323 3.25069C404.498 9.17964 417.673 41.1301 409.109 61.2226Z" stroke="black" stroke-width="3" stroke-miterlimit="10"/>
<path d="M348.831 17.4143C347.514 17.4143 346.196 17.4143 345.208 17.4143" stroke="black" stroke-width="3" stroke-miterlimit="10"/>
<path d="M409.439 43.4358C404.168 38.1656 394.946 29.931 381.77 24.3314C368.595 18.7319 356.407 17.4143 348.832 17.4143" stroke="black" stroke-width="3" stroke-miterlimit="10"/>
<path d="M411.745 46.0709C411.086 45.4121 410.427 44.4239 409.439 43.4358" stroke="black" stroke-width="3" stroke-miterlimit="10"/>
<path d="M436.778 89.2203C431.837 91.1966 425.908 88.8909 423.932 83.6207L422.614 80.6563C417.674 82.6326 411.745 80.3269 409.768 75.0567L408.451 72.0922V58.5874" stroke="black" stroke-width="3" stroke-miterlimit="10"/>
<path d="M393.299 47.3882L391.652 51.0114C389.676 55.6228 391.652 60.893 396.263 62.8693L396.922 63.1987L395.604 66.1632C393.299 71.104 395.605 77.0329 400.875 79.0092C392.311 99.1018 368.924 108.325 348.832 99.7606C328.739 91.1965 319.516 67.8101 328.08 47.7176" stroke="black" stroke-width="3" stroke-miterlimit="10"/>
<path d="M399.886 80.9862C396.922 87.5739 400.216 95.4792 406.803 98.4437" stroke="black" stroke-width="3" stroke-miterlimit="10"/>
<path d="M442.048 50.6829L440.73 53.6473C438.425 58.5881 432.825 60.8938 427.884 58.9175C425.579 63.8583 419.979 66.164 415.038 64.1877L412.074 62.8701" stroke="black" stroke-width="3" stroke-miterlimit="10"/>
<path d="M333.68 150.816H392.969" stroke="black" stroke-width="3" stroke-miterlimit="10"/>
<path d="M383.088 167.285H613.658" stroke="black" stroke-width="3" stroke-miterlimit="10"/>
<path d="M307.329 173.872V167.285L290.86 160.697L287.566 163.991V173.872L290.86 177.166H307.329L313.917 170.579" stroke="black" stroke-width="3" stroke-miterlimit="10"/>
<path d="M396.263 177.166L392.969 167.285L409.439 160.697L412.732 163.991V173.872L409.439 177.166H396.263Z" stroke="black" stroke-width="3" stroke-miterlimit="10"/>
<path d="M336.974 28.9429C335.327 35.86 327.751 39.8126 321.163 37.1775L317.21 35.5306" stroke="black" stroke-width="3" stroke-miterlimit="10"/>
</svg>
