<svg width="230" height="326" viewBox="0 0 230 326" fill="none" xmlns="http://www.w3.org/2000/svg">
<g opacity="0.2">
<path d="M82.086 53.45C79.5564 56.6991 69.1104 69.8685 58.9398 82.6534C26.3112 123.68 25.1853 125.172 26.321 127.323C26.5679 127.79 27.5046 128.432 28.4087 128.672C29.2907 128.983 38.6261 128.658 49.207 127.974L68.4336 126.791L73.591 136.444C76.4303 141.821 78.9134 146.071 79.1472 145.948C79.381 145.824 80.4186 144.619 81.4536 143.295C82.5353 141.946 85.056 139.36 87.0261 137.542C91.8248 133.154 102.411 127.385 108.878 125.704C113.368 124.469 121.154 123.587 125.296 123.732C126.693 123.772 128.18 123.644 128.601 123.422C128.975 123.224 131.094 120.67 133.252 117.737C138.142 111.029 142.431 107.15 149.506 102.996C155.95 99.234 162.027 97.0415 169.406 95.9553C171.999 95.5431 174.545 95.1555 175.086 95.0488C175.983 94.9343 175.684 94.2551 170.869 85.1375L165.709 75.3654L170.397 69.1828C172.924 65.8155 175.225 62.9262 175.412 62.8274C175.599 62.7287 178.209 67.3303 181.127 73.0839L186.493 83.5847L186.046 86.9296C185.506 91.3408 186.371 94.1126 190.815 102.529L194.519 109.542L202.28 105.444L210.042 101.345L205.584 93.3553C201.792 86.6276 200.766 85.1366 198.692 83.3614C197.366 82.2082 195.709 81.1097 194.948 80.9137C193.64 80.5879 193.223 79.9113 187.1 68.3156L180.631 56.0654L184.956 50.5532C187.348 47.4963 189.547 44.3018 189.859 43.4197C190.573 41.4881 189.728 39.6619 188.016 39.2505C186.898 38.9442 179.858 39.3132 166.967 40.3797C164.914 40.5672 155.468 41.2497 145.951 41.9102C136.458 42.6175 124.297 43.4786 118.914 43.9291C113.578 44.3549 104.77 44.9997 99.3381 45.3567C93.7164 45.6943 88.952 46.2967 88.1351 46.7878C87.387 47.1828 84.6624 50.1761 82.086 53.45Z" fill="white"/>
<path d="M68.1878 163.694C66.3228 164.918 63.3682 167.136 61.6733 168.569C56.2642 173.159 53.0673 165.519 88.2989 232.241L118.691 289.798L134.215 281.601C148.313 274.217 150.373 273.249 155.916 271.517C171.491 266.702 186.146 265.241 198.822 267.278C205.918 268.374 205.379 268.599 207.495 263.774C212.403 252.572 221.332 241.4 233.064 231.797C241.125 225.209 246.56 221.8 259.753 215.193L271.659 209.205L243.415 155.715L215.17 102.226L204.273 107.86L193.305 113.472L189.733 107.047L186.161 100.622L180.91 103.813C164.481 113.804 151.942 127.54 144.448 143.695C143.23 146.372 142.073 148.597 141.933 148.671C141.793 148.745 139.822 148.41 137.566 147.987C115.948 143.736 89.355 149.766 68.1878 163.694ZM113.803 200.596C117.182 202.579 125.163 207.274 131.442 211.014L142.851 217.786L134.654 202.262L126.457 186.739L130.899 184.394L135.341 182.048L147.513 205.099L153.599 216.625L159.685 228.15L156.737 229.588C155.051 230.358 152.782 231.496 151.588 232.067L149.484 233.178L132.318 222.75L115.176 212.368L123.085 227.685L131.015 242.93L126.807 245.152L122.599 247.374L110.501 224.464L98.3788 201.506L102.988 199.252L107.598 196.997L113.803 200.596ZM174.748 167.219L176.97 171.428L167.385 176.489L157.8 181.55L160.392 186.46L162.984 191.369L171.401 186.925L179.817 182.481L182.039 186.689L184.261 190.897L175.845 195.341L167.428 199.785L170.194 205.022L172.984 210.305L182.728 204.98L192.473 199.655L194.843 204.144L197.189 208.586L182.928 216.116L168.667 223.646L156.57 200.736L144.472 177.825L158.499 170.418L172.526 163.011L174.748 167.219ZM203.522 147.541C210.016 146.025 214.737 147.718 217.78 152.689C219.006 154.672 219.634 156.314 219.885 158.035C220.152 160.465 218.797 165.486 217.628 166.103C217.372 166.298 217.919 166.427 218.889 166.453C224.068 166.409 227.452 168.628 230.264 173.841C232.61 178.282 232.844 182.464 231.015 186.359C228.893 190.948 226.638 192.677 214.808 198.923L204.313 204.525L192.124 181.782L180.007 159.061L190.2 153.679C197.868 149.63 201.193 148.113 203.522 147.541Z" fill="white"/>
<path d="M196.039 167.338L198.754 172.481L203.337 170.062C210.116 166.482 211.807 163.795 209.758 159.915C207.684 155.987 205.246 155.899 198.139 159.652L193.323 162.195L196.039 167.338Z" fill="white"/>
<path d="M205.767 185.76L208.877 191.652L213.787 189.059C217.995 186.837 218.996 186.129 220.233 184.28C222.253 181.539 221.954 178.708 219.488 176.303C216.756 173.619 215.103 173.774 208.459 177.044L202.656 179.869L205.767 185.76Z" fill="white"/>
<path d="M55.6058 183.911C53.1876 185.786 51.5227 187.502 51.1917 188.574C50.9295 189.549 54.3172 196.191 82.6604 249.868L114.46 310.09L115.911 310.46C117.291 310.808 118.391 310.287 135.41 301.3C149.929 293.693 154.679 291.364 159.326 289.748C175.496 284.02 184.019 282.27 197.843 281.727L207.201 281.33L211.409 279.108L215.592 276.839L219.807 270.667C231.145 253.977 247.514 241.268 276.612 226.62L290.015 219.842L290.498 218.152L291.052 216.484L259.622 156.963C234.933 110.207 227.929 97.2825 226.968 96.5942C226.078 95.9281 224.99 95.9049 222.331 96.5315C220.425 96.9995 218.311 97.6377 217.609 98.0081L216.276 98.6526L245.458 153.919C263.457 188.004 274.627 209.611 274.568 210.18C274.515 210.985 272.367 212.239 260.142 218.755C244.385 227.075 240.539 229.644 231.61 237.647C221.546 246.669 215.203 255.04 209.985 266.107C207.478 271.437 206.499 272.074 202.198 271.176C191.741 268.924 174.45 269.923 162.065 273.533C150.668 276.86 147.879 278.034 133.36 285.641C121.297 292.01 119.097 293.053 118.402 292.642C117.899 292.37 106.355 270.96 88.3562 236.875L59.1735 181.609L57.9358 182.322C57.2123 182.764 56.211 183.472 55.6058 183.911Z" fill="white"/>
</g>
</svg>
