<svg width="166" height="185" viewBox="0 0 166 185" fill="none" xmlns="http://www.w3.org/2000/svg">
<path d="M158.068 126.902C151.488 137.711 140.898 145.471 128.626 148.476C116.355 151.481 103.407 149.485 92.6303 142.927C91.8114 142.428 90.9974 141.933 90.2088 141.351L75.2935 165.86C71.6101 171.913 66.7743 177.183 61.0623 181.369C55.3502 185.555 48.8736 188.576 42.0024 190.259C35.1312 191.943 27.9998 192.255 21.0155 191.178C14.0312 190.102 7.33075 187.658 1.29667 183.985L-14.041 174.651C-26.2282 167.235 -34.9617 155.266 -38.3204 141.378C-41.6792 127.49 -39.3883 112.82 -31.9516 100.594L25.7916 5.7108C27.4175 3.02731 30.0393 1.09739 33.0806 0.34533C36.122 -0.406732 39.3338 0.0806398 42.01 1.7003C43.1184 2.37395 44.0827 3.26015 44.8478 4.3082C45.613 5.35625 46.1639 6.5456 46.4692 7.80826C46.7744 9.07092 46.8279 10.3821 46.6267 11.6669C46.4255 12.9516 45.9734 14.1847 45.2965 15.2957L-14.0277 112.777C-16.2891 116.494 -17.7984 120.619 -18.4694 124.916C-19.1404 129.214 -18.9599 133.599 -17.9383 137.821C-16.9168 142.044 -15.0741 146.022 -12.5155 149.527C-9.95688 153.033 -6.73251 155.998 -3.02641 158.252L11.2802 166.959C18.7918 171.53 27.8161 172.924 36.3715 170.836C44.9269 168.747 52.3141 163.347 56.9111 155.819L88.9071 103.244C90.1116 101.265 91.3011 99.31 92.4966 97.3455C93.1561 96.2618 93.0355 96.0935 92.0291 95.481C87.0958 92.4788 82.1921 89.4945 77.2736 86.5013L76.5878 86.0839L76.6085 85.8389L79.0346 85.1183C82.4639 84.1267 85.8926 83.1325 89.3206 82.1356L97.1344 79.9269C98.8192 79.4469 100.505 78.9876 102.189 78.4867C104.787 77.7283 107.385 76.9024 109.969 76.1558C112.553 75.4092 115.178 74.6945 117.78 73.952C118.155 73.8435 118.524 73.7151 118.886 73.5674C119.24 73.4301 119.388 73.4865 119.463 73.9186C119.76 75.6522 120.125 77.407 120.474 79.1449C120.855 81.0178 121.254 82.8949 121.62 84.7718C122.004 86.8503 122.359 88.9445 122.757 91.0241C123.004 92.3276 123.332 93.6117 123.589 94.9213C123.958 96.6711 124.283 98.4356 124.636 100.189C125.006 102.103 125.41 104.004 125.785 105.921C126.179 107.984 126.52 110.056 126.917 112.115C127.229 113.702 127.584 115.274 127.918 116.847C127.926 116.933 127.898 117.045 127.888 117.263C127.611 117.095 127.361 117.017 127.139 116.882L112.078 107.716C111.303 107.245 111.105 107.293 110.623 108.085L100.477 124.756C101.197 125.295 101.962 125.815 102.752 126.296C109.129 130.177 116.791 131.358 124.053 129.579C131.315 127.8 137.581 123.207 141.474 116.811C145.367 110.414 146.567 102.738 144.81 95.4709C143.053 88.2037 138.484 81.9407 132.106 78.0598L86.8483 50.5171L32.761 139.393C32.0021 140.64 31.0057 141.726 29.8288 142.588C28.6519 143.451 27.3176 144.073 25.9019 144.42C24.4862 144.767 23.0169 144.831 21.5779 144.609C20.1389 144.388 18.7583 143.884 17.5151 143.128C16.2719 142.371 15.1903 141.376 14.3321 140.2C13.474 139.024 12.856 137.689 12.5135 136.272C12.171 134.856 12.1107 133.384 12.3361 131.943C12.5614 130.501 13.0681 129.117 13.8269 127.87L77.4754 23.2836C77.4754 23.2836 142.689 61.6483 142.925 61.8053C153.478 68.4735 160.981 79.0355 163.813 91.2134C166.646 103.391 164.583 116.209 158.068 126.902Z" fill="#F3F3F3" fill-opacity="0.1"/>
</svg>
