<svg width="80" height="81" viewBox="0 0 80 81" fill="none" xmlns="http://www.w3.org/2000/svg">
<path d="M80 21.7229C79.9993 27.4809 77.7209 33.0028 73.6661 37.0741C69.6112 41.1453 64.1119 43.4325 58.3778 43.4325C57.942 43.4325 57.5089 43.4325 57.0653 43.393V56.4488C57.0653 59.6729 56.4328 62.8655 55.2041 65.8442C53.9754 68.8228 52.1745 71.5293 49.9042 73.8091C47.6338 76.0889 44.9386 77.8973 41.9722 79.1312C39.0059 80.365 35.8266 81 32.6158 81H24.4547C17.9698 81 11.7505 78.4135 7.16447 73.8094C2.57848 69.2054 0.00140253 62.9607 1.03252e-05 56.4488L1.03252e-05 5.90455C-0.00277784 4.47675 0.55921 3.10629 1.56241 2.09446C2.56562 1.08263 3.92792 0.512267 5.3498 0.508776C5.93937 0.508429 6.52322 0.62479 7.06798 0.851188C7.61274 1.07759 8.10772 1.40959 8.52461 1.82821C8.9415 2.24684 9.27213 2.74387 9.49759 3.2909C9.72305 3.83793 9.83892 4.42421 9.83857 5.01624L9.83857 56.9444C9.83892 58.9244 10.2276 60.885 10.9825 62.7141C11.7374 64.5433 12.8437 66.2052 14.2382 67.6051C15.6328 69.0049 17.2882 70.1152 19.1101 70.8726C20.9319 71.63 22.8845 72.0197 24.8563 72.0193H32.4688C36.4658 72.0194 40.2994 70.4266 43.1279 67.5908C45.9564 64.7549 47.5485 60.9079 47.5548 56.8943V28.8874C47.5548 27.833 47.5548 26.7918 47.5548 25.7453C47.5548 25.168 47.4682 25.1311 46.9327 25.1311C44.3077 25.1311 41.6984 25.1311 39.0813 25.1311H38.7164L38.6665 25.031L39.4383 24.1769C40.5355 22.9802 41.6319 21.7826 42.7274 20.5841L45.2395 17.877C45.7803 17.2918 46.3263 16.7146 46.8618 16.1215C47.6913 15.2121 48.5051 14.2763 49.3319 13.3748C50.1588 12.4733 51.0093 11.5745 51.8441 10.6703C51.9641 10.5394 52.0772 10.4021 52.1827 10.2591C52.2877 10.1221 52.3586 10.1089 52.4898 10.2591C53.0148 10.8628 53.5713 11.4585 54.1173 12.0516C54.708 12.6895 55.3065 13.3247 55.8919 13.9679C56.5324 14.6849 57.165 15.415 57.8108 16.1294C58.215 16.5775 58.6455 16.9993 59.055 17.4474C59.6115 18.0405 60.1549 18.6494 60.7061 19.2477C61.302 19.9041 61.9084 20.5472 62.5069 21.2036C63.1474 21.9127 63.7695 22.6375 64.41 23.344C64.9062 23.887 65.4154 24.4142 65.9168 24.9466C65.9404 24.9783 65.9562 25.0283 66.0034 25.1153C65.8564 25.1153 65.7409 25.1443 65.6228 25.1443H57.6086C57.1965 25.1443 57.1309 25.2102 57.1309 25.632V34.5125C57.5378 34.552 57.9578 34.5731 58.3778 34.5731C61.771 34.5731 65.0253 33.2195 67.4247 30.8101C69.8241 28.4007 71.1721 25.1329 71.1721 21.7255C71.1721 18.3181 69.8241 15.0503 67.4247 12.6409C65.0253 10.2315 61.771 8.8779 58.3778 8.8779L34.2959 8.8779V56.2221C34.2959 56.8864 34.1656 57.5442 33.9124 58.1579C33.6592 58.7716 33.2882 59.3292 32.8204 59.7989C32.3527 60.2686 31.7973 60.6412 31.1862 60.8954C30.575 61.1497 29.92 61.2805 29.2584 61.2805C28.5969 61.2805 27.9419 61.1497 27.3307 60.8954C26.7195 60.6412 26.1642 60.2686 25.6965 59.7989C25.2287 59.3292 24.8576 58.7716 24.6045 58.1579C24.3513 57.5442 24.221 56.8864 24.221 56.2221L24.221 0.508776C24.221 0.508776 58.6088 -0.00523161 58.7374 4.02776e-05C64.411 0.0954912 69.8199 2.42646 73.7976 6.4902C77.7753 10.5539 80.0029 16.0248 80 21.7229Z" fill="white"/>
</svg>
